<?xml version="1.0" standalone="no"?>
<!DOCTYPE svg PUBLIC "-//W3C//DTD SVG 20010904//EN"
 "http://www.w3.org/TR/2001/REC-SVG-20010904/DTD/svg10.dtd">
<svg version="1.0" xmlns="http://www.w3.org/2000/svg"
 width="469.000000pt" height="385.000000pt" viewBox="0 0 469.000000 385.000000"
 preserveAspectRatio="xMidYMid meet">

<g transform="translate(0.000000,385.000000) scale(0.100000,-0.100000)"
fill="#000000" stroke="none">
<path d="M0 1925 c0 -1277 3 -1925 10 -1925 7 0 10 648 10 1925 0 1277 -3
1925 -10 1925 -7 0 -10 -648 -10 -1925z"/>
<path d="M1424 3586 c-70 -16 -169 -63 -216 -104 -18 -16 -53 -40 -78 -54 -25
-14 -70 -53 -101 -85 -203 -212 -213 -574 -24 -806 24 -30 83 -81 130 -113
223 -154 252 -164 476 -164 188 0 259 14 351 70 l62 37 51 -32 c27 -18 60 -35
73 -39 22 -7 22 -9 16 -129 -5 -110 -1 -168 21 -272 l7 -31 -104 4 c-164 6
-285 -32 -404 -127 -38 -30 -130 -135 -139 -158 -1 -1 -43 12 -95 29 -86 29
-107 32 -230 33 l-134 1 -150 160 c-82 87 -200 214 -263 281 l-115 122 148
178 c81 98 158 191 171 206 l23 28 -26 52 c-15 28 -34 89 -44 136 l-17 84
-139 -168 c-76 -93 -206 -249 -288 -347 l-148 -179 48 -52 c27 -29 289 -309
584 -622 294 -314 726 -774 959 -1023 233 -248 427 -452 431 -452 6 0 686 720
737 780 30 36 25 37 -74 5 -72 -22 -76 -23 -53 -4 63 49 249 130 388 168 171
46 210 69 247 146 24 49 27 64 23 125 -4 49 -13 81 -30 112 -14 24 -60 151
-102 283 -154 482 -204 608 -311 787 l-46 77 30 44 c162 236 138 577 -54 773
-33 34 -76 69 -95 79 -19 10 -62 39 -96 65 -106 81 -209 110 -394 110 -155 0
-222 -13 -324 -64 l-88 -45 -40 26 c-22 13 -70 36 -107 50 -59 23 -83 26 -226
29 -112 3 -178 -1 -221 -10z"/>
<path d="M3228 2953 c2 -32 -1 -85 -7 -117 -6 -33 -10 -60 -8 -62 1 -1 58 -7
127 -13 185 -17 178 -15 235 -85 27 -33 126 -153 218 -264 l169 -204 -44 -46
c-36 -39 -246 -263 -407 -434 l-35 -38 23 -72 c33 -105 62 -168 75 -167 6 1
47 40 91 88 44 47 184 196 311 331 127 135 247 264 268 287 l37 42 -307 373
c-169 205 -312 379 -318 385 -11 12 -324 53 -402 53 l-30 0 4 -57z"/>
</g>
</svg>
