<?xml version="1.0" standalone="no"?>
<!DOCTYPE svg PUBLIC "-//W3C//DTD SVG 20010904//EN"
 "http://www.w3.org/TR/2001/REC-SVG-20010904/DTD/svg10.dtd">
<svg version="1.0" xmlns="http://www.w3.org/2000/svg"
 width="422.000000pt" height="394.000000pt" viewBox="0 0 422.000000 394.000000"
 preserveAspectRatio="xMidYMid meet">

<g transform="translate(0.000000,394.000000) scale(0.100000,-0.100000)"
fill="#000000" stroke="none">
<path d="M0 1970 l0 -1970 2110 0 2110 0 0 1970 0 1970 -2110 0 -2110 0 0
-1970z m1631 1620 c35 -10 86 -33 112 -50 26 -16 50 -30 53 -30 3 0 49 21 101
48 l96 47 206 0 206 0 65 -31 c36 -17 85 -46 110 -65 25 -19 68 -49 96 -67
259 -164 331 -546 156 -818 l-38 -59 43 -71 c102 -168 176 -357 313 -799 33
-106 74 -222 90 -257 23 -47 30 -77 30 -121 0 -129 -71 -208 -215 -237 -90
-18 -213 -59 -280 -92 -75 -38 -145 -81 -145 -90 0 -4 32 4 70 17 39 13 70 20
70 14 0 -7 -201 -224 -669 -722 -35 -37 -67 -66 -70 -65 -4 2 -42 41 -86 88
-459 490 -1128 1204 -1200 1280 -268 282 -652 695 -664 715 -13 21 -12 27 25
72 22 26 145 175 273 330 128 156 236 285 240 288 5 2 11 -17 14 -44 5 -44 26
-110 57 -187 15 -35 25 -21 -212 -307 -54 -65 -98 -121 -98 -125 0 -4 115
-131 257 -281 l256 -274 58 7 c75 7 197 -8 301 -39 l83 -24 19 27 c51 71 154
160 227 195 98 47 152 58 279 57 81 -2 104 1 102 11 -17 69 -22 135 -21 254
l1 140 -58 33 c-33 18 -63 37 -67 41 -4 4 -53 -15 -108 -43 l-101 -51 -196 0
c-222 0 -252 7 -368 85 -33 22 -89 59 -126 84 -107 72 -188 188 -223 323 -24
90 -22 252 5 338 42 134 115 234 223 304 34 23 85 57 112 77 110 78 162 92
371 93 135 1 173 -2 225 -19z m1569 -575 c166 -16 176 -18 202 -43 30 -30 562
-674 585 -709 19 -28 42 0 -334 -400 -157 -166 -293 -314 -304 -328 -11 -14
-25 -25 -30 -25 -13 0 -54 85 -78 164 l-22 70 39 40 c21 23 105 113 187 201
82 88 171 183 199 212 l49 52 -79 98 c-44 54 -140 171 -213 260 -149 182 -118
164 -316 184 -60 6 -113 14 -117 17 -3 4 -2 32 3 62 5 30 9 78 8 105 -2 67 -2
66 24 61 12 -3 101 -12 197 -21z"/>
</g>
</svg>
